/* XPM */
static char *result[] = {
/* columns rows colors chars-per-pixel */
"64 64 220 2 ",
"   c #EF9C12",
".  c #EF9D12",
"X  c #EE9C13",
"o  c #EF9C13",
"O  c #EE9D13",
"+  c #EF9D13",
"@  c #EE9E13",
"#  c #EF9E13",
"$  c #EF9F13",
"%  c #EE9C14",
"&  c #EF9C14",
"*  c #EE9D14",
"=  c #EF9D14",
"-  c #EF9C15",
";  c #EE9D15",
":  c #EF9D15",
">  c #EE9E14",
",  c #EF9E14",
"<  c #EF9F14",
"1  c #EE9E15",
"2  c #EF9E15",
"3  c #EE9F15",
"4  c #EF9F15",
"5  c #EE9E16",
"6  c #EF9E16",
"7  c #EF9F16",
"8  c #F09D11",
"9  c #F09E11",
"0  c #F09D12",
"q  c #F19D12",
"w  c #F09D13",
"e  c #F09E12",
"r  c #F19E12",
"t  c #F09E13",
"y  c #F19E13",
"u  c #F09F13",
"i  c #F19F13",
"p  c #F29E13",
"a  c #F09D14",
"s  c #F09D15",
"d  c #F09E14",
"f  c #F19E14",
"g  c #F09F14",
"h  c #F19F14",
"j  c #F09E15",
"k  c #F19E15",
"l  c #F09F15",
"z  c #F19F15",
"x  c #F09F16",
"c  c #EFA015",
"v  c #EFA016",
"b  c #EFA117",
"n  c #F0A016",
"m  c #F0A017",
"M  c #F0A117",
"N  c #F0A217",
"B  c #F0A118",
"V  c #F0A218",
"C  c #F1A218",
"Z  c #F0A318",
"A  c #F0A219",
"S  c #F1A219",
"D  c #F0A319",
"F  c #F1A319",
"G  c #F1A31A",
"H  c #F0A419",
"J  c #F1A419",
"K  c #F0A41A",
"L  c #F1A41A",
"P  c #F1A51A",
"I  c #F1A41B",
"U  c #F1A51B",
"Y  c #F2A51A",
"T  c #F2A51B",
"R  c #F1A61B",
"E  c #F1A71B",
"W  c #F2A61B",
"Q  c #F1A61C",
"!  c #F1A71C",
"~  c #F2A61C",
"^  c #F2A71C",
"/  c #F2A71D",
"(  c #F2A81C",
")  c #F3A81C",
"_  c #F2A81D",
"`  c #F2A91D",
"'  c #F2A81E",
"]  c #F3A81E",
"[  c #F2A91E",
"{  c #F3AA1E",
"}  c #F3AA1F",
"|  c #F3AB1F",
" . c #F4AA1E",
".. c #F4AC1F",
"X. c #F3AB20",
"o. c #F4AB20",
"O. c #F4AB21",
"+. c #F3AC20",
"@. c #F3AD21",
"#. c #F4AC20",
"$. c #F4AC21",
"%. c #F5AC21",
"&. c #F4AD21",
"*. c #F5AD21",
"=. c #F4AE21",
"-. c #F5AE21",
";. c #F4AD22",
":. c #F4AE22",
">. c #F5AE22",
",. c #F5AF22",
"<. c #F4AE23",
"1. c #F5AE23",
"2. c #F5AF23",
"3. c #F6AF22",
"4. c #F6AF23",
"5. c #F6AF24",
"6. c #F5B023",
"7. c #F5B024",
"8. c #F5B125",
"9. c #F6B024",
"0. c #F6B124",
"q. c #F6B025",
"w. c #F6B125",
"e. c #F5B225",
"r. c #F6B225",
"t. c #F6B126",
"y. c #F6B226",
"u. c #F7B226",
"i. c #F6B326",
"p. c #F7B326",
"a. c #F6B227",
"s. c #F6B327",
"d. c #F7B327",
"f. c #F7B427",
"g. c #F7B527",
"h. c #F8B427",
"j. c #F7B428",
"k. c #F7B528",
"l. c #F7B529",
"z. c #F7B628",
"x. c #F8B528",
"c. c #F8B629",
"v. c #F8B729",
"b. c #F8B62A",
"n. c #F8B72A",
"m. c #F8B82A",
"M. c #F9B82A",
"N. c #F8B92A",
"B. c #F8B82B",
"V. c #F9B82B",
"C. c #F8B92B",
"Z. c #F9B92B",
"A. c #F8B92C",
"S. c #F9B92C",
"D. c #F9BA2C",
"F. c #F9BA2D",
"G. c #F9BB2D",
"H. c #FABA2D",
"J. c #FABB2D",
"K. c #FABB2E",
"L. c #FABC2D",
"P. c #F9BC2E",
"I. c #FABD2E",
"U. c #FABC2F",
"Y. c #FABD2F",
"T. c #FBBD2F",
"R. c #FABE2F",
"E. c #FABD30",
"W. c #FBBD30",
"Q. c #FABE30",
"!. c #FBBE30",
"~. c #FBBE31",
"^. c #FBBF31",
"/. c #FBBF32",
"(. c #FCBE30",
"). c #FBC031",
"_. c #FBC032",
"`. c #FBC133",
"'. c #FCC031",
"]. c #FCC132",
"[. c #FDC132",
"{. c #FCC133",
"}. c #FCC233",
"|. c #FDC233",
" X c #FCC134",
".X c #FCC234",
"XX c #FDC234",
"oX c #FDC334",
"OX c #FDC235",
"+X c #FCC335",
"@X c #FDC335",
"#X c #FEC335",
"$X c #FDC434",
"%X c #FDC435",
"&X c #FEC434",
"*X c #FEC535",
"=X c #FDC436",
"-X c #FDC536",
";X c #FDC537",
":X c #FEC536",
">X c #FEC537",
",X c #FFC537",
"<X c #FDC637",
"1X c #FEC636",
"2X c #FFC636",
"3X c #FEC736",
"4X c #FFC736",
"5X c #FEC637",
"6X c #FFC637",
"7X c #FEC737",
"8X c #FFC737",
"9X c #FEC538",
"0X c #FEC638",
"qX c #FFC638",
"wX c #FEC738",
"eX c #FFC738",
"rX c #FEC739",
"tX c #FFC739",
"yX c #FFC838",
"uX c None",
/* pixels */
"uXuXuXuXuXuXuXuXuXuXuXuXuXuXuXuXuXuXuXuXuXuXuXuXuXuXuXm l v m g g n l l 4 uXuXuXuXuXuXuXuXuXuXuXuXuXuXuXuXuXuXuXuXuXuXuXuXuXuXuX",
"uXuXuXuXuXuXuXuXuXuXuXuXuXuXuXuXuXuXuXuXuXuXuX7 , 3 2 , 1 2 , 2 , , , > 1 2 2 = 6 uXuXuXuXuXuXuXuXuXuXuXuXuXuXuXuXuXuXuXuXuXuXuX",
"uXuXuXuXuXuXuXuXuXuXuXuXuXuXuXuXuXuXuXuX6 1 6 1 , 1 > * = = * , , = + , , = , 1 2 4 2 4 uXuXuXuXuXuXuXuXuXuXuXuXuXuXuXuXuXuXuXuX",
"uXuXuXuXuXuXuXuXuXuXuXuXuXuXuXuXuXuX1 1 > , 1 * > 2 ~ ;.p.m.S.J.G.D.v.p.&.R > > 2 , > 1 2 , uXuXuXuXuXuXuXuXuXuXuXuXuXuXuXuXuXuX",
"uXuXuXuXuXuXuXuXuXuXuXuXuXuXuXuX2 1 > 2 * * Z w.Y.3X8X7X4X7X4X7X5X1X3X1X3X7X3XI.8.D * > , , , d uXuXuXuXuXuXuXuXuXuXuXuXuXuXuXuX",
"uXuXuXuXuXuXuXuXuXuXuXuXuXuX7 2 2 = > * +.T.eX8XwX6X5X7X8X5X2X7X3X5X8X7X5X8X7X1X5X7XQ.@.> = , , < 4 uXuXuXuXuXuXuXuXuXuXuXuXuXuX",
"uXuXuXuXuXuXuXuXuXuXuXuXuX2 2 ; = * +.].5X8X8X5X8X1XL.h.:.` P Z F L ( *.d.L.*X5X5X6X5X7X[.&., , 1 > 4 uXuXuXuXuXuXuXuXuXuXuXuXuX",
"uXuXuXuXuXuXuXuXuXuXuXuX1 , , = L R.7XqXqX8X*Xc.[ , + = = , , , d a , , # * , ( l.%X8X2X1X6X!.U = , 2 2 uXuXuXuXuXuXuXuXuXuXuXuX",
"uXuXuXuXuXuXuXuXuXuX2 1 1 = * 0.<X5X8X5X|.>.4 + , , , d , , = # , , , # # , , O , , #.).6X5X5X5Xy.; ; ; 2 uXuXuXuXuXuXuXuXuXuXuX",
"uXuXuXuXuXuXuXuXuXl 5 2 2 v H.eX7XqX%X2., # , , , , d d , , , , g d d d , , d , , , d * &.XX6X5X5XY.M 2 * ; uXuXuXuXuXuXuXuXuXuX",
"uXuXuXuXuXuXuXuXuX1 2 2 M ^.7X0X5XA.n # = d # , , , d , g g g # , , < g # < d , d # d , , l c.6XeX7X}.F : 1 1 uXuXuXuXuXuXuXuXuX",
"uXuXuXuXuXuXuXuX2 2 : V }.5X7X;X%.= , , , d , , d $ # d , , d g t d d , d , d # , , , , < = , | =X6X5XoXD > 1 2 uXuXuXuXuXuXuXuX",
"uXuXuXuXuXuXuX1 2 , m {.5X5X&XE * , , # , , d , , # , d d d d t d = , d , , , , , , t , j = , , L }.5X5XXXS = * : uXuXuXuXuXuXuX",
"uXuXuXuXuXuX6 : = 7 ~.qX7XoXK , , , # , , , g d d , w 0 . . 0 r g d + w . 0     t , , , , d , d + V }.8XqX_.4 * > 2 uXuXuXuXuXuX",
"uXuXuXuXuX4 1 : = m.7X5X%XK = = , , # $ , d g 4 d t uXuXuXuXuXuX, , uXuXuXuXuXuXu d d , d d , , , , G +XqX0XF.* * 1 s uXuXuXuXuX",
"uXuXuXuXuX; 2 = o.7X7X5X^ = , = , # d , d , t d < g uXuXuXuXuXf g d uXuXuXuXuXuXj , d d < , a t , , = R 5X0XwX1.; ; 6 uXuXuXuXuX",
"uXuXuXuX6 , * b #X5X7X8.> , = = = , d d , $ , 4 g f uXuXuXuXuXd = w uXuXuXuXuXuX2 d , , , # , , , , a , 1.8X0X-XM = : 6 uXuXuXuX",
"uXuXuXuX2 = = n.0X8XT.* , # , , d a d w uXuXuXuXuXuXuXuXuXuXuXuXuXuXuXuXuXuXuXuXuXuXuXuXuXuXuXuXu w , # O J.9X6XB.* : = uXuXuXuX",
"uXuXuX7 = = L eXeX,XA # # # t , d = d f uXuXuXuXuXuXuXuXuXuXuXuXuXuXuXuXuXuXuXuXuXuXuXuXuXuXuXuXw t t d = V :X5XqXP : : j uXuXuX",
"uXuXuX2 , = D.8X6Xk.= = , d , , d d d uXuXuXuXuXuXuXuXuXuXuXuXuXuXuXuXuXuXuXuXuXuXuXuXuXuXuXuXuXd , d , # , y.0XqXS.: : = uXuXuX",
"uXuX7 2 : C wX5X:Xv = , , d , d , d l uXuXuXuXuXuXuXuXuXuXuXuXuXuXuXuXuXuXuXuXuXuXuXuXuXuXuXuXuX, g , d , = 4 =X5X5XB : : 6 uXuX",
"uXuX< 2 = i.qX0Xf.= , a < d d d d # t uXuXuXuXuXuXuXuXuXuXuXuXuXuXuXuXuXuXuXuXuXuXuXuXuXuXuXuXg , d d d d , = a.5XqXy.> , , uXuX",
"uXuX, 1 O .X7X7XJ , = # , d # = w a + h k j f uXuXuXuXuXuXuXz x l j x x 4 j 4 d l h t uXuXuXuXt d d , , , = , B wX5X.X* = , uXuX",
"uX2 = = Y eX6X~.O d + # = , , , # d d , d d , uXuXuXuXuXuXuXh d d g , d # , , < , , d d i uXuXt d , d , t # , O U.8X5XU = 1 s uX",
"uXg , , w.6X6Xt.= , # t d d = # # , d d d d d uXuXuXuXuXuXuXt < d , , , , , d , j d < d , t z d t , d d , , = = 6.6XqXq.* : : uX",
"uX2 > , J.6X7XQ = # = d # , d + , d , , d d t uXuXuXuXuXuXuXg < g , d g , , d , , d , , d j d w g , d , d , , , P 5X8XD.= = = uX",
"uX2 j = =X5X7X= + , , w # t t = t , t d d d t uXuXuXuXuXuXuX, d < d j d d d d d , d d g d d d g d , d d d t d , X :X8XOXO , , uX",
"uX2 : n yX6X(., d , + t # t t , , d g , g g g uXuXuXuXuXuXg < d g , d d d d , 0 q t d d d l d g , , d t t d a , O E.wXrX2 2 2 uX",
"uX2 = R 0X8XB.= a d + t , , , d , d , d , d p uXuXuXuXuXuXg j d , , , d d , e uXuXw g < d d g g d d d d d d = = + b.0XwXT ; 1 uX",
"uX, # } 6X8Xs.= , # d t d # d d d d d d , d uXuXuXuXuXuXuX9 0 0 . 0 0 0 t uXuXuXuX# t d d d d d t , , , # = d + + u.0X6X' > = uX",
"x , , $.qX7X9.= # t + + # d , d , d d t d g uXuXuXuXuXuXuXuXuXuXuXuXuXuXuXuXuXuXuXj d d d d d # d d t d d t , + + 7.8X5XX.= : + ",
"= = , >.8X7X:., + + d d < g d d d g g d , t uXuXuXuXuXuXuXuXuXuXuXuXuXuXuXuXuXuXuX< d g d d d g , g d < g , d d # 2.eX0X#.* ; j ",
"* , = -.qX5X>.* + + + , , # d , d , , g a w uXuXuXuXuXuXuXuXuXuXuXuXuXuXuXuXuXuX, d d < 2 d , , , d , d , , , = * >.6X0XO.: = 6 ",
"2 , = $.qX5X5.# , = # , w t d , , d d t d d uXuXuXuXuXuXuXuXuXuXuXuXuXuXuXuXuXuXg , d d , d d , d d , w d d a = + 6.5XqX} : = = ",
"uX, = ] eX8Xd.> , # , d t d , , t g t , d f uXuXuXuXuXuXi t u y u t f t g uXuXuXd , g < j g d , d d , , d , , , O s.qXqX/ = = uX",
"uX, , I 0XqXV.* , d , , d u d a d < d d a uXuXuXuXuXuXuXd 4 d , d , d d , d uXuX, d g , d , d , , d d # t , , , = n.6X6XS = = uX",
"uX, = c tXwX^.% + = + d , t , = , g d , , uXuXuXuXuXuXuXt j d d d d d d d d w t , d g g d , g d d , d , d a , = + W.5XeX+ * : uX",
"uX= : O .X6X5X= # = , # , , d d + = , d u uXuXuXuXuXuXuX, , d d d j d l d d d d j d d g d g d t d d d = , d , + = >X5X/.& * = uX",
"uX: = o A.5X5X/ = d + , , = , = , d d d t uXuXuXuXuXuXuXd d g d d g d g g , d g d g g < d j d d d d d d d d # # W wXqXn.= = = uX",
"uX: : = 1.6X6Xd.= = w , , , # d d g < , f uXuXuXuXuXuXu 2 j g d d d d d d d d d g z j g d , g u g d , a + t # # t.5X6X;.= : d uX",
"uXuX, , B qX6X X= = = , , # + = , d < d d uXuXuXuXuXuXd , , d d d d d d d d , g j g l d d 4 j , d , 2 , a = = + _.0X0Xv = = uXuX",
"uXuX, , * !.eXwX/ # d d # , d d , , d d uXuXuXuXuXuXuXz 2 j d d d d d , d j g d l d d g l 2 2 d d , d = = d a W 5XwXU.: - : uXuX",
"uXuX2 , + =.qX5XZ.= = + = = + , w uXuXuXuXuXuXuXuXuXuXuXuXuXq t d d d , d , l d j d j g j < d d d d d , = , # M.5X6X&.* & : uXuX",
"uXuXuX= = 2 %X5X7XF * w , d # # # uXuXuXuXuXuXuXuXuXuXuXuXuXuXg t , , d d d d d d , , d < , d $ t , , = = , Z 1X8X$X1 % * uXuXuX",
"uXuXuX= , = y.0XeXS.= , , , a # d uXuXuXuXuXuXuXuXuXuXuXuXuXuXd , d 2 d d d d d g d < , , , , d d d , , , + N.5X8Xe.% ; d uXuXuX",
"uXuXuX6 = , 7 @XqXwX] , + , d , uXuXuXuXuXuXuXuXuXuXuXuXuXuXy d d , j g d d d , d d d g 2 2 2 , , , , , + ^ wXeX=X4 * * , uXuXuX",
"uXuXuXuX= = * <.qX6X}.4 = # = , uXuXuXuXuXuXuXuXuXuXuXuXuXuXy # , d d t , d , d , d < < d 2 # t g w , * 2 ].6X7X2.% = = uXuXuXuX",
"uXuXuXuX, = = ; !.eX0XD.> , = , t q q 8 0 uXuXuXuXuXuXe 0 0 , d d d t t , , , , d g d d g , d w d = + = n.eX0X~.> = = = uXuXuXuX",
"uXuXuXuXuX: = * D :X6XeXw.* O * # t , , d uXuXuXuXuXuXg , , d , d , , d # d , # , , # < d # # # , @ # ,.8X6X1XJ = % = uXuXuXuXuX",
"uXuXuXuXuXuX= * * ;.5X0X0X$.+ # = , , d t uXuXuXuXuXuX, , d , , , , d , , # t t , , , # , , # t , + } 0XqX5X>.= = * uXuXuXuXuXuX",
"uXuXuXuXuXuX, 2 * * l.qX0X5X#.= > , # , d uXuXuXuXuXt , d d d t , d , # d d , , a d t < d = # # ,  .5XeX8Xc.O O , = uXuXuXuXuXuX",
"uXuXuXuXuXuXuX1 : * * F.qX5XwXq.O > , , , # , + # # , d t , # d # , # # d d d , , # # , # = # + &.5X5X5XJ.= = = , uXuXuXuXuXuXuX",
"uXuXuXuXuXuXuXuX, = = , F.6X5X7XB.7 + # , , , > , , , , , d u , , , , d , , d w , , , , @ + > k.6X5X5XP.1 = * * uXuXuXuXuXuXuXuX",
"uXuXuXuXuXuXuXuXuX, * , > n.7X5X5X].[ + = , , , , , , # # d , d d t # , , # d , = , , @ * J !.6X5X8XC.> = * X uXuXuXuXuXuXuXuXuX",
"uXuXuXuXuXuXuXuXuXuX* = = + 7.5X5X5X7XD.H O , * # , d , d , , t , # # , # , , # d = # c g.5X6X7X5Xy.* * * + uXuXuXuXuXuXuXuXuXuX",
"uXuXuXuXuXuXuXuXuXuXuX* * = * ! `.5X6X7X5XC.~ > # # # # , , # # d , , # , , d + , N i.=X5X5X6X.X_ O * = * uXuXuXuXuXuXuXuXuXuXuX",
"uXuXuXuXuXuXuXuXuXuXuXuXO * O = 2 i.>X5X6X5X0X_.r.Y # # + * # + + * O O + O C =.K.0X6X5X7X5Xz.4 + O * = uXuXuXuXuXuXuXuXuXuXuXuX",
"uXuXuXuXuXuXuXuXuXuXuXuXuX= ; = * = Z n.5X8XeX5X7X5X*XL.g.4.$. .{ ..3.f.G.oXeX6X5X6X6X7XG.P * = , * , uXuXuXuXuXuXuXuXuXuXuXuXuX",
"uXuXuXuXuXuXuXuXuXuXuXuXuXuX, = = > + = B s.@XwX8X7X5X6X6X5X5X2X6X5X1X7X8X7X5X5X5X-Xc.P + = = = , , uXuXuXuXuXuXuXuXuXuXuXuXuXuX",
"uXuXuXuXuXuXuXuXuXuXuXuXuXuXuXuX= = , + = * , [ k.'.7X6X6X8X5X6X1X2X6X6X6XwX].c.| < = @ = = + + uXuXuXuXuXuXuXuXuXuXuXuXuXuXuXuX",
"uXuXuXuXuXuXuXuXuXuXuXuXuXuXuXuXuXuX* = , , = * , * 4 ) -.r.j.x.l.g.w.$.^ 7 X * > + # @ * + uXuXuXuXuXuXuXuXuXuXuXuXuXuXuXuXuXuX",
"uXuXuXuXuXuXuXuXuXuXuXuXuXuXuXuXuXuXuXuX, = , , , = , # , , = , # , = , * = , * * , * # uXuXuXuXuXuXuXuXuXuXuXuXuXuXuXuXuXuXuXuX",
"uXuXuXuXuXuXuXuXuXuXuXuXuXuXuXuXuXuXuXuXuXuXuX, + > # # = * * # * * * , , = > + , uXuXuXuXuXuXuXuXuXuXuXuXuXuXuXuXuXuXuXuXuXuXuX",
"uXuXuXuXuXuXuXuXuXuXuXuXuXuXuXuXuXuXuXuXuXuXuXuXuXuXuX= = , 2 O , 6 ; + = uXuXuXuXuXuXuXuXuXuXuXuXuXuXuXuXuXuXuXuXuXuXuXuXuXuXuX"
};
