/* XPM */
static char *result[] = {
/* columns rows colors chars-per-pixel */
"128 128 23 1 ",
"  c #EF9A0D",
". c #F19B0E",
"X c #EF9E14",
"o c #F09E14",
"O c #F09F18",
"+ c #EFA016",
"@ c #EFA219",
"# c #F1A016",
"$ c #F1A41A",
"% c #F3AA1E",
"& c #F4AD22",
"* c #F6B226",
"= c #F8B427",
"- c #F7B529",
"; c #F8B72A",
": c #F7B82B",
"> c #F9BA2D",
", c #FABE31",
"< c #FEC637",
"1 c #FFC837",
"2 c #FEC638",
"3 c #FEC838",
"4 c None",
/* pixels */
"4444444444444444444444444444444444444444444444444444444444$#$#+####$X+4444444444444444444444444444444444444444444444444444444444",
"444444444444444444444444444444444444444444444444444$O#OXXX+XXX+XXXoOX+++XXOOO444444444444444444444444444444444444444444444444444",
"44444444444444444444444444444444444444444444444X@XXX@XXXX+XXXXOXXXXXXXXXXOX@+XOXO44444444444444444444444444444444444444444444444",
"44444444444444444444444444444444444444444444OOOOOXXXXXXXXXXXXXXXXXXXXXXXXXXXXXXXX+X+44444444444444444444444444444444444444444444",
"44444444444444444444444444444444444444444OXOXXXXXXXXXXXXXXXX oooXXXXXXXXXXXXXXXXOXXOXXX44444444444444444444444444444444444444444",
"44444444444444444444444444444444444444OXXXXXXXXXX+XXXXXXXXXX+oooXXXXXXXXXXXXXXXXXXXXXXOXX444444444444444444444444444444444444444",
"444444444444444444444444444444444444@OOXXXXOXXXXXXXXXXXX++$%%&&&&*&%%@+XXXXXXXXXXXXXXOXXXX++444444444444444444444444444444444444",
"4444444444444444444444444444444444$OXXXXXXXXXXXXXXX@%*:<333<1<1<1<<<<<33<:*%+XX+XXXXXXXXXXXXXo4444444444444444444444444444444444",
"44444444444444444444444444444444XXXXXOXXXXXXXXX+&:<<11<<<11<<1<1<<<<11<<<<<<<<:&#XXXXXXXXXXXXXX444444444444444444444444444444444",
"4444444444444444444444444444444XXXXOXXXXXXXXX&<3<<<<3<<1111<<11<<<<<<<1<<<<<<<<<2,*+XXXXXXOXXXXXX4444444444444444444444444444444",
"44444444444444444444444444444++XXXXXXXXXXX%>3<<<<3<<<<<<<<11<<11<<<<<<<<<<<<<<<<<<22>&XXXXXXXXXX+X#44444444444444444444444444444",
"4444444444444444444444444444XXXXXXXXXXXX&<<33<2233<<<<3<<11<<<<<<<<<<1<<<<<<<<<<<<2<<<<*OXXXXXXXXXXO4444444444444444444444444444",
"44444444444444444444444444OXXXXOXXXXXX*333<<2<<<<<<<<<<<<:-*&%%%$%%&**:<3<<<<<<<<<<<<<<<3*XXXXXXXXXXX444444444444444444444444444",
"4444444444444444444444444XXXOXXXXXXX&<<<33<<<122<<<<-&@XXXX+++XX.ooo+ +XX@&*<<<<<<<<<<<<<<3*XXXXXXXXXXX4444444444444444444444444",
"444444444444444444444444+XXXXXXXXX%,<3<<<33<11<1>&+ XX XXX X oXXooooXX+X+XXX +&:<2<<<<3<<<<<<%XXXXXXXXOX444444444444444444444444",
"44444444444444444444444XXOXXXXXXO:3<<<<<33<33>&X+X+X+X++XXXX+oXooooo++ XXX+XXXX+X&:<<<<<<<<<<2>+XXXXOXXXX44444444444444444444444",
"4444444444444444444444OXXXOXXXX@<<<22<<<23<:$XXX+ XXX+XXXXXXoXXXoXoXXoXoXXXoXXXoXXo+*<<<<<<<<<<<&XXXXXXXXX4444444444444444444444",
"44444444444444444444OXXOXXXXXX:3<2<3<<<<<*+o+XXXXX+XX #XoX+XXoXXoXXXXXXXXXXX +XXXXXXXX%<<<<<<<122:XOXXXXXOX444444444444444444444",
"4444444444444444444OXOXXXXXOO,3322<<<33*XXXo XXXXXXXXXooXoXX#XoXoooXooXooXoo#XXXXXXXXXXX*<3<<<<<22,@XOXXXXXOO4444444444444444444",
"444444444444444444OXXXXXXOX@<333<<1<3>$XXXXooXXXX+XoX#o+XooXooooooXXoXoXX#oXXX+ooooXXXXXX#-32<2<2222%XXOXOOOO4444444444444444444",
"44444444444444444OXOXXXXXX&<3<<<2<1<%X XoXoXoXooXXX#XXooo+XXXXoXooXXXo+oXooooXXoXXooXooXXXX$<1<<3<2<2*XXXXXOOX444444444444444444",
"44444444444444444XXXXXXXX&<<3<<311:+XX+XXXXXXooXoo#XooXoXXoooooooo+oX+ooooXo+XoXXXoXXXXXXXXXX*<<<<<222*XXXXXXXX44444444444444444",
"4444444444444444XXOXOXXX&3<<<3<<<%XXXoXXXXXoooXXXX #Xo+XXXXo.+X+ooXoo+XXoXXooXXXOXXXXXXXXXXXXX%<<22<<<<-XXXXXOOX4444444444444444",
"444444444444444XXXXXXXX*33<<<33,#oXXXXoXXoooXXoXXo+XXoXoooXo#oXXXooXXXoo+XoXoXoooXXXooX+XXXXX X+,2<<<<<<:XXXXXXOO444444444444444",
"44444444444444OXXXXXXX*1<<<222,XXXXoXX+XXXX#o+oXXoXXooo#oXooo+oooooooooX+oXoooXoXXoXXoXXX# ++XXXX-2222<2<-XXXXXXXO44444444444444",
"4444444444444OXXXXXXX&22<<<<<>XXXXXXXoXXXXooXXXXXoX#oXoXoXoXXoXooooXo+oooXoXXoXoX#oXX++XoXXX +oXXX*2222222*XXXXXXX$4444444444444",
"4444444444444OXOOXXX$22<<2<2:XXXXXXXXoXoXooXXXXoXXooXXXoXOoOo#X#ooXXXX#@oXXoXOXX+ XX #X#X#+oXXXXXXX*22,2<22&XXXOXXX4444444444444",
"444444444444OXXXXXX@2<1<<22:XXXXoXXXXooXoXoooooXXoo.o4444444444ooooo#44444444444#+XXXXoXXoXXXX#XXXXX*22222<2OXXXXXXX444444444444",
"44444444444OXXXXXXX,<<11<<: XXXX.+X++ +#oo#XoXX+oooo44444444444oooooo44444444444#.XXoXoXXoXoXX.+XXXXX*2222222OXXOXOXO44444444444",
"44444444444OXOXOXX>222<2<>XXXXXXXXXX##X oXX.oX +oooo44444444444#oooo#44444444444X+#oo+ooXoooooXoXXXXXX:222222>XXXXXXX44444444444",
"4444444444XXXXXXX&22<<<<<XXXXXXXXXoXX+X##X#Xo##Xoooo44444444444ooXX+o44444444444oXooo#XX+XXoXX+oOXXXXXO,222222&OXXXXXX4444444444",
"444444444XOXXXXXX<22<<<<+XXXXXXOXoXXXXoXXXXoXXXooooo44444444444oXoX+444444444444XXoXXoXXoXXoooXXXXXXXXXO<22,222OXXXXXOO444444444",
"444444444XOXXOXX>22222<&XXX.XooXXoXoooXXXoXooX+Xoo#444444444444XXXXo44444444444#XXoOXoOXXXXXXXXXXXXoXXXX$22<<22,OXXXXOX444444444",
"44444444OOXXXXX&222<<<-XXXXXooXoXooXoooXXXXoXOXXoOo44444444444ooXXXo44444444444+XXXXXXXXXXXXXoXXXXXXXoXXO&2<2<22&OXXXOXO44444444",
"44444444XXXXXXX,<22<<<XXXXXXoXXoXXXooooo..........o444444444444....444444444444......... .. . ..XXXXXoXXXX,22,22,OXXXXXX44444444",
"4444444OXXXXXO*222<2<$XXXXXXXXXoXoo ooo444444444444444444444444444444444444444444444444444444444XXXXXooXXXO<<<222*XXXXXOO4444444",
"4444444XXXXXXO322<<<*XXXXXXoXooXoXoXooo444444444444444444444444444444444444444444444444444444444XX.ooXXXXXX&<<<<22OXXXXXX4444444",
"444444XOXXXXX-2<<<<<XXXXXXXoXXXXXoXoXoo444444444444444444444444444444444444444444444444444444444oXXoooXooXXo,22<22:XXXXXXO444444",
"444444OXXXXXO3<2<<<%XXXoXXoXo XoXXoXooo44444444444444444444444444444444444444444444444444444444oooXooXXoXoXX&<2<2<2OXXXXOX444444",
"44444XXXXXXX-332<<<XXXoXXXXooXXOoooXXoo44444444444444444444444444444444444444444444444444444444#ooooXXooXXXX.,2<22<-XXXXXX444444",
"44444XXXXXXX<22231%XXXXXoXXooooXXoooooo44444444444444444444444444444444444444444444444444444444#oXXoooXooXXXX@2<222,XXXXXXO44444",
"44444XOXXXX*2<223>XXXXXoXoXoXXXoXoXooO444444444444444444444444444444444444444444444444444444444.XoXOooXoooXXXX,<2222&XXXXOX44444",
"4444OXXXXXX,22<<<%XXXXoXoXoXXXoXXooooo444444444444444444444444444444444444444444444444444444444OooXOXXXooXooXX@<2222,XXXXXOX4444",
"4444XXXXXX$22<<<<XXXXXXXXooXooXoXooooo444444444444444444444444444444444444444444444444444444444+oooooooooooXXXX<22222OXXXXXX4444",
"4444XXXXXX-222<<*XXXXXoXoXXXoXoooXXoXooo##Oo##444444444444444########OO#####O#O###.#4444444444.oooXoXoooXXXoXXX&2222<-OXXXXX4444",
"444$XoXXXX222222$XXXXXo+Xo+.X#XXXXoooXoooooOOXo44444444444444#XXOXoXOXooXXXXoooXoX#+#oo4444444#XooooXoXXoXXXXXXX2222<<XXXXOXO444",
"444XXXOXX$22<<2, X#XoXo oXoXo ooXXoooXoooooXooo4444444444444#ooXOoooXoXXooXXoo+XoooooOX##44444ooXooXXoXooXooXXXX:222<<$XXXXXo444",
"444XXXXOX*22<<2*XXXX oXXXXoo#XXooXoooooooXooooO4444444444444##ooooXXXooOooooooXooXXooXoo#.4444oooXXXoXXXoooooX X&222<<-XXXXXX444",
"444XOXXXX<<<<<<XXX XXXXXooX+oXXoXoo.oooXooooooo4444444444444OXXXoXOoXooooXXoooXooOoXXoooXo4444oXXoXooXXoXoXooXXXO2<<,2,OOXXXX444",
"44OXXXXXX3<<<<<XXXXXXooXXXXoXXXXXooXooXooXoooO44444444444444oooXooXoXXoXoooXoXooXoooXooXoooooooXoXoXooXXXXXoXXXXX:<22<2OXXXXXX44",
"44OXXXXX%<<<<<-XXXXXXXXXXXooXX XXXoooooOXoooo#44444444444444XooooooXX#+ooooOXXo#oXooooXooXXXoXXXoXXooXXooXoXXoX X&2<<<<&XXXOXO44",
"44XXXXXX=1<<<<&XXXXXXXoXXXoXoX#XoXXooooooXoooo44444444444444ooo#XoXoX#.XXooXo#oXXoooo+X#oOoX+# XooXXXoooXoXXoXXXX&22<<<-XXXXXX44",
"44XXXXoX,22<<2OXXoXXXXXXX OXoXXXooooooXoXoooo#4444444444444#+oXooXoXX+ooooXooXooXoooo+Xo#XXoXooooXXXoXoooXoXXooXXX22222:XXXXXX44",
"44XXXXXX<1<1<<XXXXoooXoXXoooXooooooooooooooooo4444444444444#XoooooooXoo##oXOXoX#XooXooo+XooXXooXoooXXXXoooXXXoXoXX,2222<XoXXOX44",
"44XXXXXX3<<<<>XXXoXoXXXooooXooooooooooXoOoooOo4444444444444#X#o+o#XX+oXXXXXoooX XoXXo.#Xo +Xooo#ooooooooooXooXoXX -22222XXXOXXO4",
"4OOXXXO$22<<2-XX.ooXoXoXooooXoooooooXoooooooo44444444444444oXoooXoXoooXo#oXoooo444#X+#oXo#o#oXOXooooXooooXoooXXoXX&22<22@.XXXoO4",
"4#XOXXX%1<<<2&XXXXooo.XXXXoooooooXooooooXoo#o44444444444444OoooooOooXooXXXoXOo4444oXoooo#XX#oX# ooXooXoooXXoXXXoXX&<<22<&XXXOXX4",
"4#oXXoX&<<<<2$XXoXXoooXXXXXoooXXoXoooooooXoXo44444444444444XXoooXooXXooOXXoo.44444ooXooXXoXXo#XoooXXoooXoXXXXoXoXXO32222&XXXXXO4",
"4XXXXXX=222<2+XXXXXooX.XoXoXoXXXXX#XX+oXoXXoo4444444444444ooOXXoXXXXXXXX Xoo444444oXooooooXXooXoo#X#XXoooooooXXoXXX22<22&XXXXXo4",
"4oXOooo:<2<<2 XXoXXXoooXXXXooXXoXXoXX#X#oooo#4444444444444444444444444444444444444XoXooo+XooXo#+# +.#oXooooXoXXoXXX2<<22-OXXXXX4",
"4OXXXoX:2<<<<XXXXXXooXXoooXoXoXo+. #X#X.ooXX#444444444444444444444444444444444444o#o.X.+oooooX+.+XX# #XooXXoXXXXX.X,2222:XXXXXX4",
"4XOXXXX<2323<XXXXXoXoXooooXoooXX+##ooXoXoOoo4444444444444444444444444444444444444##o#+#XoooooXX#X# X++oXoXooXXXXXXX<2222>XXXXXX4",
"4XXXXoX>2<22,XXXXXXooXXoooXoooooX#+o++oXoXoo4444444444444444444444444444444444444##o#++#oo#X.#oooo#+Xo+ooooooXXXXXX,22<<>XXXXXX4",
"4XXoXXX>222<,XXXoX XXooXoXXXoooX+.Xo.#oooXXo4444444444444444444444444444444444444 oXXo.#Xooo+X#ooX #XXXXXooXXXXXXXX,<2<<,XXXXXX4",
"4XXXXXX,<222,XXXXoXXoXoX#+ooXXoXoooXoooooooo4444444444444444444444444444444444444XooX#oooooooooooXXooooooXXoXXXXXX.,2<<2>OXXXXX4",
"4XXXXoX,2222,XXX XXXXXX+o.XX#ooXXXooXXoooooo4444444444444444444444444444444444444#XooXo+XoooXoXooXooXoXoooXoXXooXXX,<222:XXXXXX4",
"4XXXXXX>2<<<<XXXXXooooXXXoXXXX +oXoXooXXoXoo444444444444444444444444444444444444.+oooOooXXXOXoX#XXoXX#XXoXXoXXXXXX.,<<22:XXXXOX4",
"4XXO.XX>2<2<,XXXXoXooX# oXX+oX#oXo+XooooXoo#444444444444444444444444444444444444#XXooooXXooo# #+#XXo+XooXXoXXoXXXXX22222:OXXXXX4",
"4OXXoXX;22<<3XXXooXX+#XXoooo+#XoX.#XoooooXo44444444444444#.#.#o#ooo.#.o.#4444444o#XoX#+ ooooXX+.ooX+X+.XooXXoXX.XXX3<<<2&XXXXXX4",
"4OXXXoX&22<22@XXXXXX XX+oXXo.ooXo+X#oooXooo44444444444444#X+Xo# oOooo+ooo#o44444oX+X#oo#ooooo+Xo#oXXooX#OoXXXXXoXXO2<<22&XXXXXO4",
"4oOXoXO&213<2@XXoXXOoXXo++XXoXXoXoooooooXoo4444444444444#XoOoooXooXoooOoOX+44444XoXoXoXooXoXoooXooXXooXoXXXoXXoXXXO<<<<<&XXXXXO4",
"4OXXXXX&221<<&XX XXXoXXXX oXoXooXXoooooooXo4444444444444oXooXoooo#ooXooooXX4444#+ooX#o#X#XoXoo#o#XXoooooXXoXoXoXXX%<<<22$XXXXXO4",
"4#XXXXX$322<2-XXXXXXoXXXoooX +oOoXoXoX#oooo4444444444444o#oooXo#ooooOX#XoXoo..XooXoo#o#XXoXoX## XXoXXoXooXoXooXXXX*22222OXXXX X4",
"44XXXXXX3<<<3>XXXXXXXXoooXoXoXXXXoo#XoXooo44444444444444X#oooooXooooXXXooXXoXoXooXoooooXOoX#XXX+oX#XoooXXXXXXoXXXX>22222XXXXXX44",
"44XXXXXX<<<<2<XXXXXoXoXoXXooXooo.ooXoooooo44444444444444# oo#ooooooXXooo#ooooOXX#oX#oo#XoooXoooooX +oooooooXoXoX.X,2<<2,XXXXXO44",
"44XXXXXX:<<<23+XXXXXXXO XXoXoXXX#XXXoXoXOo44444444444444oXoXXXXXooOoXoooooooooXoooXoooXooXXoXoXoooXoooXoooXXXXXoXX2<222-XXXXXO44",
"44XXXXXX&322<2&XXXXoXX XXoX.XoXXoXX#oXoXoo4444444444444##X##ooooooooXX#ooooooOoooooo#oXooooXXXoXoXoooXXXoXXXooXXX&,22<2&XXXXXX44",
"44OXXXXX$222<<-XXXX.Xo#XXoooXXXo.oXXXo#ooo4444444444444oXXXo+ooooOoo#oXooX#oooX#X##X o++#X#XX#oo#XoXXooXooXXXXo X*<2222OXXXXOX44",
"44OOXXXXX<2<<2<XX XoXoXXXoXoo Xo+o++ooXXoo4444444444444oX#ooooooooooXoX#ooooXoo#oooX#Xoo# +XXo #oXXXooXoooXoXoXXO,2222,..XXXXo44",
"444XXXXXX><<2<3$XXXXXXXooX#ooXXooX.#oXXXO44444444444444ooo#ooXooooXooooooooXoooXoX##oooo+#oo#X#oXoXXXooooXXoXXXXO2<222-XXXXXO444",
"444XXXXXX&2222<-XXXXXXoXXXXXoXXooX#XoXOoo44444444444444oOoXXXoXooXooXoXXoXoXooooXXoooo+XoooXXo#ooXXXoXoooXXXXXXX*<<<22&XXXXXO444",
"444OXoXXXX22<2<<XXXXXXXXXXXoXOooXXXXooXoO44444444444444OoooOoo#XooX#X#ooooooOoX#ooX#ooo++XooX#XXoooXXXXXXXXooXXo<<<<22XXX X  444",
"4444XXoXXX:2<2<<$XXXXXXXoXXX Xoooo#ooooOo4444444444444#ooooO#+oooX#+oXooo+oooooX#oOXo#oXX#+oXooXooXoooXoXXooXXo$2222<:XXXOOO4444",
"4444XXXXXX&22<2<>XXXXXXXXoooXoXXoooXoooo44444444444444#ooooo ooXo#X.o#ooXooXooooXoo##oooXooooooXXXXooXXXooXo oo:22<<,&XXXO O4444",
"4444OXXXoXX<<2<<2+XXXXXXXoXX ooooo#ooo#4444444444444444o.ooo.ooooo#XoXo.#oX#X#ooooooX# +oooooo+XooXXooXoXoXoXXo<<222<XXXXXXO4444",
"44444XXXXXX:222<2-XX XoXoXooXooXXX4444444444444444444444444444ooXoX#X#+#oooo#ooXXoooooX+++XXo+.#XoXXoXoXXXXXXX*<<222-XXXXXX44444",
"44444XXoXXXO222<2<XXXXXXXoXoooXXXX4444444444444444444444444444oooX# XXXXooooXXo#XooooooXX.X#XoXoooXOooXXoXXXXX<<<222OXX.XXO44444",
"44444XXXXXXO:2<<<<*XXoXXoXoooXoXXo444444444444444444444444444#Oo.#XXo#oXooXX#XooX#XoXX#o#XXoXo#XoXXoXoXooXXoX*<<<<2>XXXXXXO44444",
"444444XXXXXXO<,22<2+XXXXoXooooXX#4444444444444444444444444444.#X+X#XXooXoXooo+ oXXXoo#XoX# #XX#XooXoXXoXXXXXX<2<222OX XXXX444444",
"444444XXXXXXO,22222;XXXXXXooXoX#X4444444444444444444444444444oooo#oooo#XX#XooX#XX+ooo+X+XX+X#o #XoXoXoXXXXXX*3<<,2>XXOXXXX444444",
"4444444OXXXXOO222222$XXXXXXXXXXoo4444444444444444444444444444#++oooooooooXoXoXX#Xoo##.oXXooX#XX#OXXXooXXXXO@332233OXXXXXX4444444",
"4444444OXXXXXX,2<<22<XXXXXXXoXXoO4444444444444444444444444444o ooooXX+X+ooo+X+XXoXXXXX+oo+XX +#.ooXXXXXoXXX:223<2,XXXXXXX4444444",
"4444444OXXXXXXO3<<<22-XXoXoXXoXXo4444444444444444444444444444#XoXooX+oooooXooXoXooooXooX#XX+oX+X# XXXooXXX&322222OXXXXXXO4444444",
"44444444XXXXXXX-2<2<<3@XXXX XXXX4444444444444444444444444444oXXoXXX#XooXooXXooooooooooooXooX#X+.XoXXXX XX@222222-OXXXXXX44444444",
"444444444XXXXXXX<<<2<2<XXoXXoXXXo.o.....o..44444444444#.o.o.oooo#oo.oooooooXoooooX#oXOXXXooXXooXX+XXXX+XX,223222XXXXXXX444444444",
"444444444XXXXXXX%22<222>XXXXXX+Xooo#Xo#Xo##44444444444oooXXX++ oXoXXXoXooXoXoXXoXooXXXo+XoXXXoXXXXXXXXXX:2<<<<2@XXXXXXX444444444",
"4444444444XXXXXXX-2<<222*XXXXXXXXXXXXX+ +X.44444444444#XXXXoXXoXXXXXXoooXo+XooXo#XXoXXoXo+XXXXXXoXXXXXX&33<<<<:XXXXXXX4444444444",
"4444444444XOXXOXXX,22<222%XXXXXXXXXX+oX+++444444444444XXXo+X XoXooooXXooXXXX oooXXooX+.#.XXXoXXXoXXXXX%<<2<32,XXXXXXXX4444444444",
"44444444444XXXXXXX@2222222%XXXXXXXXX + XX#44444444444.+XXXXo+XXXoooXooXXoXXoXoX+oXooXX ++o#+XXXXXXXXX@<<22<<2@OXXXXXX44444444444",
"444444444444XXXXXXO&2222222@XXXXXXX++X+XXo44444444444##X#XXX#o#Xo+oXooXXXoooXoXXXoo+ #XXXX XoXXXoX X$<222<<2&OXXXXXX444444444444",
"444444444444XXXXXXXX*,22<<<<@XXOXXXX+XXX+o44444444444oXoXXXXXXXooX+ XoXooooooX XXooXoXX+XXXXX XXXXX#<<<2222:XXXXXXXX444444444444",
"4444444444444XXXXXXXO,223<<33@XXXX XXXXXXo.o.o..o.o.oX#oXXo#XXXo +++ooooXoXooo++XXooo+XXX+XXXXX+XX$<<<<222,XXXXXXXO4444444444444",
"44444444444444XXOXXXOO:2<<<<33%XXX+ X XXXXX +XXXoXXX XXoooXoXo#XooooXXXo oooXoXXXXXo+ oXX+Xo+X++X$<<222<2,X XXXXXX44444444444444",
"44444444444444OXXXXXXXO,2<3<<33&XX+X+++ XXX+ooXXXXXX+#XXX#XXXoX+XoXXoX+++XXoX+XoooXXoXXXX+ X+ X %<<<<22<,XXXXXXXX 44444444444444",
"444444444444444XXXXXXXXX,23<<<<3>XXXXXXXoXXXXXXXXXXX+oo.+XXo.#X ooXoX+XoXooXooXXXoX+.XXXXXXXX X*11<<<<<<OXXXXXXXO444444444444444",
"4444444444444444XXXXXXXX@,33<<<<2,@+XXXXXXXOXXXXXo+.+.XX+oXo+o+XoXXooXXXooXXoXXXXXoXXXXXXXXX++>11<<<<<,+XXXXXXXX4444444444444444",
"44444444444444444XXXXXXXOO:3<<<<<<<*XXXXXXXXXXXX +XXXooX#.+XXXXXXX+ XXX+ +XXX XXXoXX+XXXXXXX%<<<<<<<3<XXXXXXXXX44444444444444444",
"444444444444444444XXXXXOXXO:<<<<<<<<<@XXXXXXXXXX++XXXXXXXoXXX+XXoXooX+ ooXXXooXoXXXX.XXXXX+-1<<<1<1<>XXXXXXXXX444444444444444444",
"4444444444444444444OXXXXXXXX*2<<<2<<12>#XXXXXXXXXo+oXX+o+X+Xoo#XXXo+X +XXXXooXX+X+XX+XXXX%<<<<<1<1<-XXXXXXXXX4444444444444444444",
"44444444444444444444XXXXXXXXX%<<2<<3<<<<*#XXXXXXoXXXXX# XX+ XXXX ooX+oooXoXoo+X X XXXX %,21<2<<<<2&XXXXXXXXX44444444444444444444",
"444444444444444444444OXXXXXXXXO,<2<<2<1<<<*+OXXXXX+oX+++X++XXXX +X +X+XXXXoXooXXXXXX %<<2<2<<<<<<+XXXXXXXXX444444444444444444444",
"4444444444444444444444XXXXXXXXXX*<<2<<<<2<<<:@XXXX +X XoX XXXoo+X+o+X o+XXXXXXXXXXX%<<<<<2<1<2<-XXXXXXXXXX4444444444444444444444",
"44444444444444444444444XXXXXXXXXXX>2<<<2<2<2<2<*+ +XXXXXXXXXX XXo+XXXXXXXXXXXX+ %-<<<<<<<<<2<,@XXXXXXXXXX44444444444444444444444",
"444444444444444444444444XXXXXXXXXXX&,2<2<<<<<<<<3<*$XXXoXXXXXXoXX XXXXXXXXXX#%:<22<2<332<<3<&XXXXXXXXXXX444444444444444444444444",
"4444444444444444444444444oXXXXXXXXXXO*<22222<2<2<1<3<>*&+X XXXoXX XX  X#%*:<331<<2<<<2<<22;+XXXXXXXXXXX4444444444444444444444444",
"444444444444444444444444444XXXXXXXXXXXX*<2<<<322<<<<1122<1<<>::;::*<<<11<<1<2<<1<<22<<<3>@XXXXXXXXXXX444444444444444444444444444",
"4444444444444444444444444444XXXXXXXXXXXXX&,222<<3<<2<2<<<<<212<<11<<<<<1<<<<<22<<2<2<<-XXXXXXXXXXXXX4444444444444444444444444444",
"44444444444444444444444444444oXXXXXXXXXXXXX%:222<<<<<22<<1<2<<<<111<<<<<22<2<<<<<32,&XXXXXXXX XXXX444444444444444444444444444444",
"4444444444444444444444444444444XXXXXXXXXXXXXOX&:2<<<<<1<<1<<1<<<1<<<<<<1<<<<<<<2,&XXXXXXXXXXXXXXO4444444444444444444444444444444",
"444444444444444444444444444444444X.XXXXXXXXXXXXXX%=,332<<<<<<<1<11<<<<<1<1<<<;%XXXXXXXXXXXXXXXX444444444444444444444444444444444",
"44444444444444444444444444444444444XXXXXXXXoXXXXXXXXX@**;,<232<323<<<<,>-&$XXXXXXXXXXXXXXXXXX44444444444444444444444444444444444",
"444444444444444444444444444444444444XXXXXXXXXXXXXXXXXXXXXXXXO$$#$$+XXXXXXoXXXXXXXXXXXXXXXXX4444444444444444444444444444444444444",
"444444444444444444444444444444444444444XXXXXXXXXXXXXXXXXXXXXXXXXXXXXXXXXXXXXXXXXXXXXXXXXX444444444444444444444444444444444444444",
"44444444444444444444444444444444444444444OXOXXXXXXXXXXXXXXXXXXXoXXXXXXXXXXXXXXXXXXXXX X44444444444444444444444444444444444444444",
"44444444444444444444444444444444444444444444oXXX+XXXXoXXXXXXXX.XXXXXXXXXXXXXXXXXoXXo44444444444444444444444444444444444444444444",
"44444444444444444444444444444444444444444444444oXXXXXXXXXXXXXXXXXXXXXXXXXXXXXXX O44444444444444444444444444444444444444444444444",
"444444444444444444444444444444444444444444444444444OoX XXXXXXXXXXXXXXXXXXXXoO444444444444444444444444444444444444444444444444444",
"444444444444444444444444444444444444444444444444444444444oXXOXXXXooOXXX444444444444444444444444444444444444444444444444444444444"
};
