/* XPM */
static char *result[] = {
/* columns rows colors chars-per-pixel */
"16 16 62 1 ",
"  c #EE9E13",
". c #EF9E13",
"X c #EE9D14",
"o c #EF9D14",
"O c #EF9D15",
"+ c #EE9E14",
"@ c #EF9E14",
"# c #EE9E15",
"$ c #EF9E15",
"% c #F09D13",
"& c #F09E13",
"* c #F09E14",
"= c #F09F14",
"- c #F09E15",
"; c #EFA016",
": c #F1A116",
"> c #F0A017",
", c #F0A117",
"< c #F0A217",
"1 c #F0A218",
"2 c #F1A218",
"3 c #F1A318",
"4 c #F1A219",
"5 c #F1A319",
"6 c #F1A51A",
"7 c #F1A51B",
"8 c #F2A61C",
"9 c #F3A61C",
"0 c #F2A71C",
"q c #F3A71C",
"w c #F3A81E",
"e c #F3A91E",
"r c #F4AD22",
"t c #F5AF22",
"y c #F6B024",
"u c #F6B125",
"i c #F6B225",
"p c #F7B225",
"a c #F7B427",
"s c #F8B527",
"d c #F7B428",
"f c #F7B528",
"g c #F7B529",
"h c #F8B528",
"j c #F8B628",
"k c #F8B629",
"l c #F8B62A",
"z c #F9B62A",
"x c #F8B72A",
"c c #F9B72A",
"v c #F8B72B",
"b c #F9B72B",
"n c #F8B82A",
"m c #F9B82B",
"M c #F9B92C",
"N c #FABA2C",
"B c #FABB2C",
"V c #FABA2D",
"C c #FABB2D",
"Z c #FABB2E",
"A c #FABC2D",
"S c None",
/* pixels */
"SSSSS$;66;$SSSSS",
"SSS$eBCsdBNw#SSS",
"SS#fj,*@@@:hg$SS",
"S$at@*&&@S*&rh#S",
"Sqz*&SSSSSSS*k9S",
"OM2@*SSSSSSS*1mo",
"@Zo*.=S**@***@V@",
"<x***=SSSS**@*c>",
",c*@*SSSSS**@*l>",
"#C@&@SS***=@@@Vo",
"Sv3**SS*===-@2cS",
"S7m*SSS****@@b6S",
"Souu.%**@@*@yiXS",
"SS@un5@*@@<cpoSS",
"SSSX8MAjkCM0+SSS",
"SSSSS@$42@ SSSSS"
};
