/* XPM */
static char *result[] = {
/* columns rows colors chars-per-pixel */
"32 32 131 2 ",
"   c #EF9D12",
".  c #EE9D13",
"X  c #EF9D13",
"o  c #EE9E13",
"O  c #EF9E13",
"+  c #EF9C14",
"@  c #EE9D14",
"#  c #EF9D14",
"$  c #EE9D15",
"%  c #EF9D15",
"&  c #EE9E14",
"*  c #EF9E14",
"=  c #EF9F14",
"-  c #EE9E15",
";  c #EF9E15",
":  c #EF9F15",
">  c #EF9F16",
",  c #F09D12",
"<  c #F09D13",
"1  c #F09E13",
"2  c #F19E13",
"3  c #F09F13",
"4  c #F09D14",
"5  c #F09E14",
"6  c #F09F14",
"7  c #F19F14",
"8  c #F09E15",
"9  c #F09F15",
"0  c #EFA016",
"q  c #EFA116",
"w  c #F0A016",
"e  c #F0A116",
"r  c #F0A017",
"t  c #F0A117",
"y  c #F0A217",
"u  c #F0A118",
"i  c #F0A218",
"p  c #F0A318",
"a  c #F1A318",
"s  c #F0A319",
"d  c #F1A419",
"f  c #F1A519",
"g  c #F2A419",
"h  c #F1A41A",
"j  c #F1A51A",
"k  c #F1A41B",
"l  c #F1A51B",
"z  c #F2A51A",
"x  c #F1A61A",
"c  c #F2A61B",
"v  c #F2A71C",
"b  c #F2A71D",
"n  c #F2A81D",
"m  c #F3A91D",
"M  c #F3A91E",
"N  c #F3A91F",
"B  c #F3AB1F",
"V  c #F4AA1E",
"C  c #F4AB1F",
"Z  c #F4AB20",
"A  c #F4AC20",
"S  c #F5AC21",
"D  c #F4AE21",
"F  c #F4AD22",
"G  c #F5AD22",
"H  c #F4AE22",
"J  c #F5AE22",
"K  c #F5AF22",
"L  c #F5AF23",
"P  c #F6AF22",
"I  c #F6AF23",
"U  c #F5AF24",
"Y  c #F6B023",
"T  c #F5B024",
"R  c #F6B024",
"E  c #F6B124",
"W  c #F6B125",
"Q  c #F6B226",
"!  c #F6B326",
"~  c #F7B326",
"^  c #F6B227",
"/  c #F6B327",
"(  c #F7B327",
")  c #F7B427",
"_  c #F7B527",
"`  c #F7B428",
"'  c #F7B528",
"]  c #F7B529",
"[  c #F8B629",
"{  c #F8B62A",
"}  c #F8B72A",
"|  c #F9B82A",
" . c #F8B82B",
".. c #F9B92B",
"X. c #F9BA2B",
"o. c #F9B92C",
"O. c #F9BA2D",
"+. c #FABA2C",
"@. c #FABB2D",
"#. c #FABB2E",
"$. c #FABC2E",
"%. c #FABC2F",
"&. c #FBBE30",
"*. c #FBBF30",
"=. c #FBBF31",
"-. c #FBC032",
";. c #FCC032",
":. c #FCC132",
">. c #FDC033",
",. c #FCC233",
"<. c #FDC233",
"1. c #FDC334",
"2. c #FDC434",
"3. c #FDC435",
"4. c #FDC535",
"5. c #FDC536",
"6. c #FEC536",
"7. c #FEC537",
"8. c #FEC636",
"9. c #FFC636",
"0. c #FEC736",
"q. c #FFC736",
"w. c #FEC637",
"e. c #FFC637",
"r. c #FEC737",
"t. c #FFC737",
"y. c #FEC638",
"u. c #FFC638",
"i. c #FEC738",
"p. c #FFC738",
"a. c None",
/* pixels */
"a.a.a.a.a.a.a.a.a.a.a.a.: ; : ; ; : 9 ; a.a.a.a.a.a.a.a.a.a.a.a.",
"a.a.a.a.a.a.a.a.a.- ; - & d M A A M s $ % ; ; a.a.a.a.a.a.a.a.a.",
"a.a.a.a.a.a.a.a.$ @ M  .4.e.w.0.9.q.t.3. .m & * a.a.a.a.a.a.a.a.",
"a.a.a.a.a.a.; # v *.w.,._ C h e r f B ' :.w.=.n # & a.a.a.a.a.a.",
"a.a.a.a.a.; ; ) e.-.Z * * * * * 5 5 * * * V =.w.' ; ; a.a.a.a.a.",
"a.a.a.a.- : @.e.! 8 5 * 5 * * = * 5 * 5 * * * W e.#.> ; a.a.a.a.",
"a.a.a.- ; O.8.Z O * 5 * 5 1 O < 1 1 1 # O * 5 5 N 6.#.$ % a.a.a.",
"a.a.a.- Q p.C * * 5 * 5 5 a.a.a.6 a.a.a.5 5 5 O O B w./ # a.a.a.",
"a.a.; j e.` * # # * < 1 1 a.a.a.< a.a.a.X     , * O ( e.l % a.a.",
"a.a.- @.<.: * * * 2 a.a.a.a.a.a.a.a.a.a.a.a.a.a.* 5 6 >.@.# a.a.",
"a.; g i.J * O 4 * 2 a.a.a.a.a.a.a.a.a.a.a.a.a.a.= 5 # S i.h % a.",
"a.# ~ 6.9 * O * * 1 5 7 a.a.a.9 9 5 * 9 5 1 a.a.* * * ; 3.^ % a.",
"a.* &.o.# * O 5 1 * 5 5 a.a.a.3 * * 5 5 5 6 5 * 5 * * #  .&.% a.",
"8 ; e.Y * * 5 5 5 1 5 a.a.a.a.6 6 6 5 1 5 5 6 5 6 5 5 * I 7.* * ",
"* a r.M O 1 O 5 * * 5 a.a.a.a.O < 4 1 a.1 = 6 5 5 * 5 * M u.u % ",
"; x y.c O 5 5 6 1 3 5 a.a.a.a.a.a.a.a.a.6 6 5 * * 5 1 5 c e.k # ",
"* z u.c * O * 5 * * 5 a.a.a.a.a.a.a.a.a.1 = 5 * 5 5 # # c y.h % ",
"* i r.N X 5 1 5 5 5 5 a.a.a.6 5 5 5 9 a.5 5 5 5 5 5 5 * m t.u % ",
"; # 7.R * 4 1 * 1 5 5 a.a.a.5 5 5 5 5 1 * 6 * 1 5 * # * U 6.+ # ",
"a.# %.+.X 5 * 5 * 5 a.a.a.a.9 5 5 5 5 6 6 5 5 5 5 * * # X.$.# a.",
"a.# W 6.w # O 5 * * a.a.a.a.: 5 5 5 9 6 5 6 = 5 * 5 5 w 5.U $ a.",
"a.# y 7.T O O 1 O a.a.a.a.a.a.3 6 5 5 * 8 6 * = * < O L w.t # a.",
"a.a.# { 2.r 5 5 a.a.a.a.a.a.a.5 5 5 8 * = 8 = 3 * * 0 1.} @ a.a.",
"a.a.& i 5...# # , a.a.a.a.a.a.1 * * * * 5 * * 5 5 X } 6.u # a.a.",
"a.a.a.% F e.E # X * 5 a.a.O * * 1 O * 5 * * O O O I p.G # a.a.a.",
"a.a.a.- & ` w.R @ * X X X * = * 5 * 5 5 O 1 * X P w.[ # # a.a.a.",
"a.a.a.a.# # ] w. .q * & * O * O O O * O * O : [ t.[ @ @ a.a.a.a.",
"a.a.a.a.a.@ & H 5.2.I 0 * O * O O * * O * D ,.8.L @ # a.a.a.a.a.",
"a.a.a.a.a.a.@ & p o.w.6...K b d f v J | 3.e.@.d . # a.a.a.a.a.a.",
"a.a.a.a.a.a.a.a.# # g ` ;.r.0.t.w.e.r.:.' j @ # a.a.a.a.a.a.a.a.",
"a.a.a.a.a.a.a.a.a.# # * # e c V M c 0 . # o * a.a.a.a.a.a.a.a.a.",
"a.a.a.a.a.a.a.a.a.a.a.a.* * * * @ * * * a.a.a.a.a.a.a.a.a.a.a.a."
};
